<svg xmlns="http://www.w3.org/2000/svg" width="128" height="128" viewBox="0 0 128 128"><g stroke="#37204f" stroke-width="3" stroke-linejoin="round" stroke-linecap="round"><path fill="#f6efff" d="M38 75q-9-28 14-41 22-12 39 5l11 13-11 15-18-8q-2 19-19 25l7 27-13 3-8-28-15 19-11-8z"/><path fill="#f6efff" d="m76 44 5-27 15 23 16 8-6 18-25-5z"/><path fill="#ffe66d" d="m85 24 11-20-4 25z"/><path fill="#f8f2ff" d="M47 39q9-29 29-9-20-2-24 22z"/><path fill="none" stroke="#ff65c3" stroke-width="9" d="M44 49Q17 52 15 79m73-49q11-11 19-3"/><path fill="none" stroke="#ffe66d" stroke-width="6" d="M43 59Q19 65 23 90"/><path fill="none" stroke="#72f1ff" stroke-width="4" d="M45 68Q27 80 34 101"/><circle cx="95" cy="43" r="3" fill="#35204d" stroke="none"/><path fill="#f6efff" stroke="none" d="m15 25 3 7 7 3-7 3-3 7-3-7-7-3 7-3zm97 67 2 6 6 2-6 3-2 6-3-6-6-3 6-2z"/></g></svg>
